<svg version="1.0" xmlns="http://www.w3.org/2000/svg"
 width="512.000000pt" height="512.000000pt" viewBox="0 0 512.000000 512.000000"
 preserveAspectRatio="xMidYMid meet">

<g transform="translate(0.000000,512.000000) scale(0.100000,-0.100000)"
fill="#000000" stroke="none">
<path d="M1681 4854 c11 -32 253 -534 256 -531 3 4 -244 527 -254 536 -3 3 -4
1 -2 -5z"/>
<path d="M3043 4685 c0 -66 3 -187 7 -270 l6 -150 1 115 c0 63 -3 185 -7 270
l-6 155 -1 -120z"/>
<path d="M4834 4273 c-94 -104 -186 -206 -204 -228 -62 -74 16 9 175 185 87
96 170 187 184 203 13 15 23 27 20 27 -3 0 -81 -84 -175 -187z"/>
<path d="M235 4333 c9 -9 359 -237 395 -258 10 -5 12 -5 5 2 -9 10 -360 238
-395 258 -10 5 -12 5 -5 -2z"/>
<path d="M1051 4158 c-4 -13 -11 -81 -15 -153 -9 -168 -10 -173 -49 -178 l-32
-4 32 -1 33 -2 3 -212 2 -213 3 213 2 212 43 0 c23 0 88 -5 144 -12 l101 -12
46 -97 c25 -54 46 -102 46 -108 0 -6 4 -11 9 -11 5 0 11 -10 14 -22 4 -12 9
-20 11 -17 3 3 -22 61 -55 129 -42 85 -57 125 -49 130 8 5 6 9 -7 12 -11 3
-36 40 -61 89 -52 103 -182 279 -205 279 -4 0 -11 -10 -16 -22z m56 -28 c58
-65 112 -146 157 -232 l47 -91 -53 7 c-29 3 -93 9 -141 13 -84 6 -88 7 -83 27
3 12 8 75 11 141 9 182 13 190 62 135z"/>
<path d="M2210 3928 c-6 -57 -18 -123 -25 -148 -32 -110 -59 -196 -65 -205 -4
-5 -29 -62 -56 -125 -78 -184 -91 -209 -99 -185 -4 11 -11 29 -15 40 -33 78
-69 202 -64 219 5 18 32 91 64 171 34 84 40 148 14 138 -12 -4 -13 -8 -3 -14
11 -6 11 -18 0 -61 -8 -29 -18 -60 -22 -68 -8 -15 -31 -76 -55 -140 -11 -31
-13 -32 -20 -15 -4 11 -14 36 -22 55 -9 19 -28 73 -43 120 -15 47 -28 77 -28
68 -1 -29 53 -180 88 -248 5 -8 4 -26 -2 -40 -30 -73 -37 -100 -37 -149 0 -60
-9 -62 -20 -4 -43 219 -89 398 -116 460 -17 38 -67 76 -92 70 -14 -4 -14 -5 3
-6 25 -1 66 -37 82 -71 20 -42 40 -118 74 -270 42 -191 46 -211 54 -237 14
-43 25 -23 25 45 0 67 19 143 37 149 9 3 23 -28 55 -122 5 -16 14 -39 18 -50
4 -11 13 -35 20 -52 14 -37 30 -44 30 -13 0 11 11 43 24 72 13 29 43 98 66
153 24 55 46 105 50 110 7 10 37 107 64 205 17 61 41 239 33 246 -2 3 -10 -41
-17 -98z"/>
<path d="M2385 3752 c-79 -45 -177 -116 -208 -151 -57 -63 -97 -194 -97 -320
0 -50 3 -57 36 -87 85 -79 278 -86 355 -14 9 8 37 32 63 54 26 21 45 40 42 43
-3 3 -18 -6 -33 -20 -105 -98 -142 -117 -224 -117 -65 0 -169 25 -169 41 0 5
-6 9 -14 9 -7 0 -22 12 -31 27 -33 50 -7 230 49 340 20 38 65 79 143 130 95
61 123 74 157 71 31 -3 31 -4 30 -55 -1 -38 -10 -66 -33 -107 l-32 -55 -72 -4
-72 -3 77 -2 77 -2 36 72 c33 68 43 117 29 152 -8 21 -70 20 -109 -2z"/>
<path d="M3572 3743 c-41 -35 -91 -258 -92 -404 -1 -50 -2 -52 -15 -35 -23 30
-20 203 5 301 11 43 19 90 19 104 -1 18 -4 14 -9 -14 -4 -22 -15 -67 -24 -100
-22 -82 -22 -266 0 -300 26 -39 34 -30 34 37 0 153 45 353 89 398 l24 24 39
-44 c38 -45 47 -73 28 -85 -5 -3 -9 -41 -9 -83 2 -136 20 -172 52 -103 22 48
22 94 -1 163 -13 39 -16 61 -9 76 6 12 13 22 17 22 11 0 119 -165 142 -217 12
-27 18 -59 16 -79 -2 -19 0 -34 4 -34 13 0 9 75 -4 106 -13 28 -107 184 -118
194 -3 3 -10 14 -16 24 -15 28 -31 31 -39 7 -10 -32 -30 -25 -59 19 -29 44
-44 49 -74 23z m137 -162 c16 -49 14 -108 -6 -138 l-17 -26 -7 24 c-4 13 -7
58 -8 100 -1 100 13 115 38 40z"/>
<path d="M2650 3640 c-40 -23 -59 -53 -60 -95 0 -25 18 -47 105 -133 122 -120
127 -134 63 -176 -37 -24 -50 -27 -93 -22 -33 3 -43 2 -30 -4 33 -14 105 -12
111 4 3 8 19 20 35 26 24 10 29 18 29 45 0 25 -9 41 -42 71 -98 91 -168 168
-168 185 0 35 19 67 54 89 29 17 48 21 96 18 33 -1 60 0 60 5 0 16 -125 6
-160 -13z"/>
<path d="M3053 3574 c-39 -14 -58 -37 -51 -62 2 -5 -6 -18 -17 -28 -57 -52
-65 -72 -65 -164 0 -71 3 -90 18 -103 25 -23 103 -22 146 1 68 37 266 216 292
264 8 15 14 45 14 68 l0 40 -147 -1 c-104 0 -161 -5 -190 -15z m327 -29 c0
-20 -6 -48 -14 -63 -13 -25 -128 -142 -140 -142 -3 0 -16 -10 -29 -22 -83 -80
-132 -108 -190 -108 -68 0 -80 20 -76 124 4 84 5 86 44 126 22 23 55 50 73 61
17 12 32 25 32 31 0 5 -14 -2 -31 -17 -34 -28 -47 -27 -31 1 18 32 71 42 220
43 l142 1 0 -35z"/>
<path d="M4295 3528 c-102 -40 -189 -66 -204 -60 -9 3 -12 1 -7 -6 4 -7 -4
-16 -21 -23 -59 -23 -96 -44 -101 -57 -6 -17 103 -120 136 -129 30 -7 136 3
159 16 10 5 29 12 43 15 29 7 124 65 117 72 -2 2 -28 -11 -57 -31 -28 -19 -62
-35 -74 -35 -12 0 -26 -4 -32 -10 -13 -13 -116 -24 -147 -16 -14 3 -51 29 -82
58 l-56 51 27 24 c15 12 34 23 43 23 9 0 27 7 39 16 18 13 29 14 54 5 50 -18
144 -13 192 9 41 18 96 70 96 91 0 15 -72 8 -125 -13z m104 -5 c-47 -60 -97
-83 -179 -83 -36 0 -72 4 -80 10 -16 10 -18 9 60 34 25 8 68 23 95 34 28 11
65 21 84 21 30 1 32 -1 20 -16z"/>
<path d="M81 3076 c9 -9 532 -157 537 -152 4 5 17 1 -268 81 -129 36 -244 68
-255 72 -11 3 -17 2 -14 -1z"/>
<path d="M4521 3066 c7 -7 491 -38 497 -31 3 3 -3 5 -14 5 -10 0 -116 7 -234
15 -240 16 -255 17 -249 11z"/>
<path d="M2630 2797 c0 -9 11 -45 25 -79 28 -69 31 -94 13 -101 -8 -3 -6 -6 4
-6 21 -1 24 -13 39 -146 10 -94 19 -134 19 -87 0 20 -16 152 -25 204 -4 25 -1
27 33 31 l37 4 -41 1 c-37 2 -42 5 -47 30 -7 41 -57 170 -57 149z"/>
<path d="M1835 2745 c4 -16 9 -111 13 -210 8 -194 23 -259 33 -142 7 79 29
109 118 158 67 36 88 36 124 4 46 -43 60 -74 67 -143 l7 -67 2 54 c1 65 -26
128 -71 166 -39 33 -65 32 -134 -7 -86 -47 -121 -91 -126 -156 -1 -15 -5 52
-8 148 -4 100 -12 186 -19 200 -11 25 -11 24 -6 -5z"/>
<path d="M1217 2666 c-51 -19 -64 -31 -87 -84 -38 -85 -22 -140 61 -217 54
-49 114 -66 239 -63 l95 1 -110 7 c-60 4 -117 8 -126 9 -58 4 -169 126 -169
184 0 52 46 133 84 148 17 7 99 16 181 19 l150 6 -140 2 c-95 1 -152 -3 -178
-12z"/>
<path d="M3824 2508 c4 -79 11 -168 17 -198 5 -30 13 -111 18 -180 8 -116 8
-106 10 133 l1 257 64 0 c36 0 68 5 71 11 4 6 4 25 1 44 -6 28 -14 36 -56 54
-27 11 -68 21 -91 21 l-42 0 7 -142z m121 112 c30 -14 47 -28 51 -45 9 -37 -2
-45 -67 -45 l-59 0 0 42 c0 23 -3 39 -6 36 -3 -3 -6 -77 -6 -165 0 -189 -13
-160 -24 55 l-7 142 37 0 c20 0 57 -9 81 -20z"/>
<path d="M3616 2583 c-17 -4 -18 -13 -14 -94 4 -81 2 -89 -14 -89 -10 0 -18 8
-19 18 0 9 -3 12 -5 6 -6 -13 -44 -7 -44 7 0 5 -10 9 -22 9 -18 -1 -13 -6 19
-20 45 -21 43 -18 58 -130 9 -67 23 -195 31 -280 15 -162 23 -93 17 138 l-6
242 22 0 c25 0 140 116 141 142 0 34 -40 58 -94 57 -28 -1 -59 -3 -70 -6z
m134 -23 c11 -11 20 -24 20 -30 0 -15 -116 -130 -133 -130 -19 0 -27 30 -27
107 0 69 1 70 78 72 30 1 48 -5 62 -19z m-142 -312 c-1 -79 -3 -125 -5 -103
-1 22 -7 69 -13 105 -21 138 -21 140 1 140 18 0 19 -8 17 -142z m9 -200 c-3
-7 -5 -2 -5 12 0 14 2 19 5 13 2 -7 2 -19 0 -25z"/>
<path d="M2317 2492 c-30 -31 -37 -45 -37 -78 0 -36 4 -42 35 -57 45 -22 48
-21 90 6 30 19 35 27 35 62 l0 40 41 -45 c22 -25 47 -60 55 -79 8 -19 17 -31
20 -28 11 10 -47 100 -93 145 -28 26 -54 42 -69 42 -14 0 -22 -4 -19 -10 3 -5
17 -10 31 -10 24 0 25 -3 22 -47 -2 -39 -7 -50 -25 -58 -13 -5 -23 -13 -23
-17 0 -12 -19 -9 -56 8 -29 14 -34 21 -34 50 0 35 42 87 85 105 20 8 20 8 0 8
-12 1 -38 -16 -58 -37z"/>
<path d="M3291 2486 c-1 -16 -4 -17 -13 -8 -14 14 -67 16 -88 2 -8 -5 -11 -10
-7 -10 5 0 1 -7 -7 -16 -9 -8 -16 -32 -16 -53 0 -33 4 -39 35 -54 44 -21 58
-21 94 -2 29 15 48 55 30 65 -5 4 -13 26 -18 51 -5 24 -9 35 -10 25z m-12 -34
c11 -16 23 -40 26 -55 6 -23 3 -28 -29 -44 -34 -16 -38 -16 -71 0 -30 14 -35
22 -35 50 0 33 18 58 50 70 29 10 39 7 59 -21z"/>
<path d="M3330 2385 c0 -14 99 -125 112 -125 5 0 -8 19 -30 43 -22 23 -50 53
-61 67 -11 14 -20 21 -21 15z"/>
<path d="M4571 2305 c8 -7 451 -76 457 -70 3 3 2 5 -1 5 -4 0 -106 16 -227 35
-236 37 -236 37 -229 30z"/>
<path d="M577 2037 c-108 -49 -196 -92 -194 -94 4 -3 357 154 393 176 52 30
-21 0 -199 -82z"/>
<path d="M2016 1682 c6 -4 17 -24 25 -44 12 -36 15 -38 57 -38 39 0 43 2 40
23 -2 13 -16 29 -38 40 -34 17 -35 17 -38 -3 -4 -25 -22 -16 -22 11 0 11 -7
19 -17 19 -11 0 -14 -3 -7 -8z m96 -39 c26 -24 22 -33 -16 -33 -30 0 -33 2
-28 25 5 29 18 32 44 8z"/>
<path d="M2543 1663 c10 -3 22 -15 27 -28 12 -31 80 -41 80 -12 0 30 -21 42
-75 43 -27 1 -42 -1 -32 -3z m97 -34 c0 -12 -47 -12 -54 0 -3 4 -3 10 0 13 7
8 54 -3 54 -13z"/>
<path d="M1810 1648 c0 -29 32 -183 40 -193 4 -5 14 -34 23 -63 28 -98 61
-131 182 -183 107 -45 162 -51 406 -46 178 3 233 8 269 21 63 24 111 59 140
103 14 21 27 40 30 43 25 22 50 84 50 122 0 41 -4 49 -47 87 -26 22 -51 41
-55 41 -5 0 14 -19 41 -42 44 -38 50 -47 50 -84 1 -32 -7 -54 -34 -94 -19 -29
-35 -56 -35 -61 0 -16 -89 -83 -137 -102 -41 -17 -79 -21 -273 -25 -229 -4
-293 2 -370 35 -146 64 -174 89 -206 188 -9 27 -20 55 -25 60 -4 6 -15 53 -24
105 -16 89 -25 123 -25 88z"/>
<path d="M4271 1486 c8 -8 522 -147 527 -142 4 5 12 3 -263 76 -126 34 -239
64 -250 67 -11 3 -17 3 -14 -1z"/>
<path d="M1131 1094 c-44 -103 -79 -189 -78 -191 2 -2 41 81 86 183 44 103 79
189 78 191 -2 2 -41 -81 -86 -183z"/>
<path d="M3650 978 c13 -12 403 -309 450 -342 13 -9 13 -8 0 6 -13 13 -404
310 -450 342 -13 9 -13 8 0 -6z"/>
<path d="M2086 641 c-16 -246 -18 -276 -13 -271 7 7 30 351 24 357 -3 2 -8
-37 -11 -86z"/>
<path d="M2680 717 c0 -15 101 -491 105 -496 8 -7 7 -3 -45 250 -43 206 -60
277 -60 246z"/>
</g>
</svg>
